<svg width="84" height="16" viewBox="0 0 84 16" fill="none" xmlns="http://www.w3.org/2000/svg">
<path d="M6.10212 3.60558C6.94655 2.09075 7.36877 1.33333 8.00001 1.33333C8.63125 1.33333 9.05347 2.09075 9.8979 3.60558L10.1164 3.99749C10.3563 4.42796 10.4763 4.64319 10.6634 4.78521C10.8505 4.92722 11.0834 4.97993 11.5494 5.08537L11.9737 5.18135C13.6134 5.55237 14.4333 5.73788 14.6284 6.36515C14.8235 6.99243 14.2645 7.64605 13.1466 8.95328L12.8574 9.29148C12.5397 9.66296 12.3809 9.84869 12.3094 10.0785C12.238 10.3083 12.262 10.5561 12.31 11.0517L12.3537 11.5029C12.5228 13.2471 12.6073 14.1191 12.0966 14.5068C11.5859 14.8945 10.8182 14.541 9.2829 13.8341L8.88569 13.6512C8.44939 13.4503 8.23125 13.3499 8.00001 13.3499C7.76877 13.3499 7.55063 13.4503 7.11434 13.6512L6.71713 13.8341C5.18179 14.541 4.41413 14.8945 3.90344 14.5068C3.39276 14.1191 3.47726 13.2471 3.64627 11.5029L3.69 11.0517C3.73803 10.5561 3.76204 10.3083 3.69059 10.0785C3.61913 9.84869 3.46029 9.66296 3.14262 9.29148L2.85341 8.95328C1.73551 7.64605 1.17656 6.99243 1.37162 6.36515C1.56669 5.73788 2.38658 5.55237 4.02637 5.18135L4.4506 5.08537C4.91658 4.97993 5.14957 4.92722 5.33664 4.78521C5.52371 4.64319 5.64369 4.42796 5.88365 3.99749L6.10212 3.60558Z" fill="#FCC02A"/>
<path d="M23.1021 3.60558C23.9466 2.09075 24.3688 1.33333 25 1.33333C25.6313 1.33333 26.0535 2.09075 26.8979 3.60558L27.1164 3.99749C27.3563 4.42796 27.4763 4.64319 27.6634 4.78521C27.8505 4.92722 28.0834 4.97993 28.5494 5.08537L28.9737 5.18135C30.6134 5.55237 31.4333 5.73788 31.6284 6.36515C31.8235 6.99243 31.2645 7.64605 30.1466 8.95328L29.8574 9.29148C29.5397 9.66296 29.3809 9.84869 29.3094 10.0785C29.238 10.3083 29.262 10.5561 29.31 11.0517L29.3537 11.5029C29.5228 13.2471 29.6073 14.1191 29.0966 14.5068C28.5859 14.8945 27.8182 14.541 26.2829 13.8341L25.8857 13.6512C25.4494 13.4503 25.2312 13.3499 25 13.3499C24.7688 13.3499 24.5506 13.4503 24.1143 13.6512L23.7171 13.8341C22.1818 14.541 21.4141 14.8945 20.9034 14.5068C20.3928 14.1191 20.4773 13.2471 20.6463 11.5029L20.69 11.0517C20.738 10.5561 20.762 10.3083 20.6906 10.0785C20.6191 9.84869 20.4603 9.66296 20.1426 9.29148L19.8534 8.95328C18.7355 7.64605 18.1766 6.99243 18.3716 6.36515C18.5667 5.73788 19.3866 5.55237 21.0264 5.18135L21.4506 5.08537C21.9166 4.97993 22.1496 4.92722 22.3366 4.78521C22.5237 4.64319 22.6437 4.42796 22.8837 3.99749L23.1021 3.60558Z" fill="#D6D6D6"/>
<path d="M40.1021 3.60558C40.9466 2.09075 41.3688 1.33333 42 1.33333C42.6313 1.33333 43.0535 2.09075 43.8979 3.60558L44.1164 3.99749C44.3563 4.42796 44.4763 4.64319 44.6634 4.78521C44.8505 4.92722 45.0834 4.97993 45.5494 5.08537L45.9737 5.18135C47.6134 5.55237 48.4333 5.73788 48.6284 6.36515C48.8235 6.99243 48.2645 7.64605 47.1466 8.95328L46.8574 9.29148C46.5397 9.66296 46.3809 9.84869 46.3094 10.0785C46.238 10.3083 46.262 10.5561 46.31 11.0517L46.3537 11.5029C46.5228 13.2471 46.6073 14.1191 46.0966 14.5068C45.5859 14.8945 44.8182 14.541 43.2829 13.8341L42.8857 13.6512C42.4494 13.4503 42.2312 13.3499 42 13.3499C41.7688 13.3499 41.5506 13.4503 41.1143 13.6512L40.7171 13.8341C39.1818 14.541 38.4141 14.8945 37.9034 14.5068C37.3928 14.1191 37.4773 13.2471 37.6463 11.5029L37.69 11.0517C37.738 10.5561 37.762 10.3083 37.6906 10.0785C37.6191 9.84869 37.4603 9.66296 37.1426 9.29148L36.8534 8.95328C35.7355 7.64605 35.1766 6.99243 35.3716 6.36515C35.5667 5.73788 36.3866 5.55237 38.0264 5.18135L38.4506 5.08537C38.9166 4.97993 39.1496 4.92722 39.3366 4.78521C39.5237 4.64319 39.6437 4.42796 39.8837 3.99749L40.1021 3.60558Z" fill="#D6D6D6"/>
<path d="M57.1021 3.60558C57.9466 2.09075 58.3688 1.33333 59 1.33333C59.6313 1.33333 60.0535 2.09075 60.8979 3.60558L61.1164 3.99749C61.3563 4.42796 61.4763 4.64319 61.6634 4.78521C61.8505 4.92722 62.0834 4.97993 62.5494 5.08537L62.9737 5.18135C64.6134 5.55237 65.4333 5.73788 65.6284 6.36515C65.8235 6.99243 65.2645 7.64605 64.1466 8.95328L63.8574 9.29148C63.5397 9.66296 63.3809 9.84869 63.3094 10.0785C63.238 10.3083 63.262 10.5561 63.31 11.0517L63.3537 11.5029C63.5228 13.2471 63.6073 14.1191 63.0966 14.5068C62.5859 14.8945 61.8182 14.541 60.2829 13.8341L59.8857 13.6512C59.4494 13.4503 59.2312 13.3499 59 13.3499C58.7688 13.3499 58.5506 13.4503 58.1143 13.6512L57.7171 13.8341C56.1818 14.541 55.4141 14.8945 54.9034 14.5068C54.3928 14.1191 54.4773 13.2471 54.6463 11.5029L54.69 11.0517C54.738 10.5561 54.762 10.3083 54.6906 10.0785C54.6191 9.84869 54.4603 9.66296 54.1426 9.29148L53.8534 8.95328C52.7355 7.64605 52.1766 6.99243 52.3716 6.36515C52.5667 5.73788 53.3866 5.55237 55.0264 5.18135L55.4506 5.08537C55.9166 4.97993 56.1496 4.92722 56.3366 4.78521C56.5237 4.64319 56.6437 4.42796 56.8837 3.99749L57.1021 3.60558Z" fill="#D6D6D6"/>
<path d="M74.1021 3.60558C74.9466 2.09075 75.3688 1.33333 76 1.33333C76.6313 1.33333 77.0535 2.09075 77.8979 3.60558L78.1164 3.99749C78.3563 4.42796 78.4763 4.64319 78.6634 4.78521C78.8505 4.92722 79.0834 4.97993 79.5494 5.08537L79.9737 5.18135C81.6134 5.55237 82.4333 5.73788 82.6284 6.36515C82.8235 6.99243 82.2645 7.64605 81.1466 8.95328L80.8574 9.29148C80.5397 9.66296 80.3809 9.84869 80.3094 10.0785C80.238 10.3083 80.262 10.5561 80.31 11.0517L80.3537 11.5029C80.5228 13.2471 80.6073 14.1191 80.0966 14.5068C79.5859 14.8945 78.8182 14.541 77.2829 13.8341L76.8857 13.6512C76.4494 13.4503 76.2312 13.3499 76 13.3499C75.7688 13.3499 75.5506 13.4503 75.1143 13.6512L74.7171 13.8341C73.1818 14.541 72.4141 14.8945 71.9034 14.5068C71.3928 14.1191 71.4773 13.2471 71.6463 11.5029L71.69 11.0517C71.738 10.5561 71.762 10.3083 71.6906 10.0785C71.6191 9.84869 71.4603 9.66296 71.1426 9.29148L70.8534 8.95328C69.7355 7.64605 69.1766 6.99243 69.3716 6.36515C69.5667 5.73788 70.3866 5.55237 72.0264 5.18135L72.4506 5.08537C72.9166 4.97993 73.1496 4.92722 73.3366 4.78521C73.5237 4.64319 73.6437 4.42796 73.8837 3.99749L74.1021 3.60558Z" fill="#D6D6D6"/>
</svg>
