<svg width="32" height="32" viewBox="0 0 32 32" fill="none" xmlns="http://www.w3.org/2000/svg">
<path d="M2 15.44C2 9.1043 2 5.93645 3.9684 3.9684C5.93645 2 9.1043 2 15.44 2H16.56C22.8957 2 26.0635 2 28.0316 3.9684C30 5.93645 30 9.1043 30 15.44V16.56C30 22.8957 30 26.0635 28.0316 28.0316C26.0635 30 22.8957 30 16.56 30H15.44C9.1043 30 5.93645 30 3.9684 28.0316C2 26.0635 2 22.8957 2 16.56V15.44Z" fill="#0077FF"/>
<path d="M16.8041 21.9997C10.6539 21.9997 7.14639 17.8707 7 11H10.0805C10.1817 16.043 12.453 18.1795 14.2518 18.6195V11.0003H17.1525V15.3493C18.9291 15.162 20.7953 13.1801 21.4247 11.0003H24.3254C23.8421 13.6868 21.8183 15.6687 20.3791 16.4836C21.8183 17.1443 24.123 18.8729 25 22H21.8072C21.1215 19.9078 19.4124 18.2892 17.1525 18.0692V22H16.8041V21.9997Z" fill="white"/>
</svg>
