<svg xmlns="http://www.w3.org/2000/svg" viewBox="0 0 220.9 220.9" preserveAspectRatio="none"><path fill="#00953C" d="M110.5 0C49.6 0 0 49.6 0 110.5S49.6 221 110.5 221 221 171.4 221 110.5C220.9 49.6 171.4 0 110.5 0zm0 198.1c-48.3 0-87.6-39.3-87.6-87.6 0-4.8.4-9.5 1.2-14.1 6.8-41.6 43-73.5 86.5-73.5s79.7 31.9 86.5 73.4c.7 4.6 1.2 9.3 1.2 14.1-.2 48.4-39.5 87.7-87.8 87.7z"/><path fill="#00953C" d="M110.5 87.7c-6.3 0-11.4 5.1-11.4 11.4 0 6.3 5.1 11.4 11.4 11.4 6.3 0 11.4-5.1 11.4-11.4 0-6.3-5.1-11.4-11.4-11.4z"/><path fill="#FFF" d="M189.7 100.1c-20.8-19.4-50.9-31.4-79.2-31.4-28.3 0-58.4 12-79.2 31.4-.5 3.4-.8 6.9-.8 10.5 0 6.7.9 13.2 2.5 19.4 7.3-6 21.2-15.6 35.6-15.6 17.9 0 30.5 14.1 30.5 34.3 0 16.4-7.2 30.7-12 38.4 7.4 2.3 15.3 3.5 23.4 3.5 8.2 0 16-1.2 23.4-3.5-4.8-7.7-12-22-12-38.4 0-20.2 12.5-34.3 30.5-34.3 14.4 0 28.4 9.6 35.6 15.6 1.6-6.2 2.5-12.7 2.5-19.4 0-3.6-.3-7.1-.8-10.5zm-79.2 18.1c-10.5 0-19-8.5-19-19s8.5-19.1 19-19.1 19.1 8.5 19.1 19.1c-.1 10.4-8.6 19-19.1 19z"/></svg>