<svg xmlns="http://www.w3.org/2000/svg" viewBox="0 0 601.9 601.9" preserveAspectRatio="none"><path fill="#00953C" d="M309 601.9h-38c-4.6-.6-9.2-1.1-13.8-1.7-53.1-6.3-101-25.6-143.4-58.1-38.2-29.3-67.2-66-87.3-109.9-12.2-26.7-20.1-54.5-23.8-83.5C1.5 339.8.9 330.9 0 322v-19c.2-1.8.6-3.6.7-5.4 1.8-38.3 11.2-74.6 27.5-109.2 16.4-35 39-65.4 67.6-91.4 26.4-24 56.5-42.2 89.7-55.2 27.5-10.7 56-17.1 85.5-18.9 8-.5 8.1-.3 8.1 7.8 0 24.7.4 49.3-.1 74-.3 18.4 14 33.7 32.4 35.9 10.5 1.3 20.5 4.2 30.6 6.8 12.1 3.1 23.5 8.4 34.3 14.9 13.4 8.1 25.5 17.6 36.7 28.8 15 14.9 26.2 31.7 35 50.5 7.5 16.1 11.5 33.2 14.2 50.6 2.5 16.5 12.3 26 28 30.8 10.9 3.3 21.8.7 32.6.9 9.4.2 18.8 1.3 28.3.1.2 0 .4.4.9 1-2.6 3.6-6.5 6-9.9 8.7-10 7.7-20.7 14-33.2 17.5-9.1 2.5-18 4.3-27.4 4-5.7-.2-11.1-1.4-16.6-2.8-3.9-.9-8.3 1.8-8.9 5.3-.8 4.3 2.7 5.4 5.7 6.2 20 5.3 39.8 3.6 58.8-3.8 14.4-5.6 26.6-15 38.4-24.9 1.8-1.5 2.8-3.7 2.3-5.8-1.3-5.5 2.2-5.7 5.9-5.8 2.3-.1 4.7-.1 7 0 5.6.2 6.8 1.4 6.1 7.1-1.5 12.3-2.8 24.7-5.1 36.8-8.5 44.8-27 85.2-54.7 121.4-19.8 25.9-43.5 47.6-70.7 65.6-29.7 19.6-62 32.7-96.6 40.7-14.7 3.5-29.4 5.1-44.1 6.7zM133.9 312.2c.2 43.1 15.4 80.2 45.8 110.7 30.6 30.8 68.2 45.8 111.5 45.8 80.6.1 159.8-64.7 155.6-165.2-3.3-79.2-67.7-147.3-156.3-147.8-88.2-.6-157.7 71.9-156.6 156.5zm-37.7-54.9c-21.1-.2-39.7 7.4-57.4 18-6.7 4-11.8 9.7-17.3 14.9-2.6 2.4-2.7 5.6-.4 8.6 2.2 2.9 4.8 1.5 7.1.3 1.9-1 4.3-1.8 5.4-3.4 5.9-8.8 15.5-12.5 24.1-17 18.2-9.5 37.8-12.7 58.1-7.4 3.8 1 7.2.4 8.3-4 1.1-4.6-2.3-6.1-5.8-7.1-7.2-2.1-14.6-2.7-22.1-2.9zm310.9 298.5c2.6.1 5.5-.6 6.2-4 .7-3.4-1.1-5.7-4.3-6.9-1.6-.6-3.1-1.1-4.7-1.6-19.9-6.7-36.8-17.5-49.6-34.4-6-7.9-9.5-17.1-12.8-26.3-1.3-3.5-4-5.1-7.5-4-3.4 1.1-4.2 4.1-3.3 7.3 1.9 6.9 4.2 13.7 7.8 19.9 12 21 29.8 35.4 51.7 45.1 5.1 2.2 10.3 4.5 16.5 4.9zM250 139.7c-2.6-11.1-7.3-21.6-14.4-31.1-11.8-15.7-27.1-26.9-44.8-34.9-5-2.3-10.2-4.2-15.6-5.2-3.4-.7-6.6 0-7.6 3.8-1.1 3.7 1 6 4.4 7.2 3 1.1 6 2.1 8.9 3.2 20.9 7.9 38 20.4 49.5 39.9 3.6 6.1 6.1 12.5 8.3 19.2 1.1 3.3 3.4 5 6.9 4.2 3.1-.7 4.5-2.8 4.4-6.3zm233.3 329.9c6.5-.2 14.6-.8 22.6-2.5 2.6-.5 5.2-1.3 7.6-2.3 2.9-1.2 3.6-3.8 2.9-6.7-.7-2.9-2.8-4-5.6-3.8-2 .2-3.9.6-5.9 1.1-26.2 5.5-51 2.6-73.7-12.5-3.8-2.5-7.3-5.3-10.5-8.5-2.7-2.7-6-3.4-8.8-.5-3 3-1.7 6.1.8 8.8.7.7 1.5 1.4 2.2 2 18.8 17.5 41.5 24.5 68.4 24.9zm-437-40.7c0 3.2 1.8 5.7 4.4 6.2 3.1.6 5.2-.8 6.4-3.5.6-1.2.9-2.5 1.3-3.8 7-21.2 18.3-39.3 36.7-52.7 7.6-5.5 16.3-8 24.7-11.3 3.2-1.2 5.3-3.3 4.2-6.8-1-3.4-3.4-5.3-7.3-4.3-7.9 2.1-15.6 5-22.6 9.2-20 12.1-33.9 29.7-43 51.1-2 5.2-4.1 10.5-4.8 15.9zm118.6 3.4c-2-.2-3.6 1-5.1 2.4-4.4 4.1-8.1 8.8-11.4 13.8-13.7 21.1-17.1 44.4-14.7 68.9.5 5.6 1.3 11.3 3.3 16.6 1.1 3.1 3.2 5.3 6.8 4.4 3.6-1 5-3.7 4.2-7.4-.5-2.4-1.1-4.9-1.5-7.3-3.9-21.7-2-42.7 8.3-62.6 3.6-7 8.1-13.4 13.7-18.9 1.8-1.8 2.6-3.8 1.6-6.3-1-2.2-2.4-3.7-5.2-3.6zm-66.2-277c-3.8 0-7.7-.3-11.5.1-6.6.7-13.3 1.2-19.5 3.7-3.2 1.3-4.1 3.8-3.3 6.9.8 3.3 3.1 4.5 6.5 3.9 2.3-.5 4.6-1 6.9-1.4 24.4-4.3 47.8-2.1 69.3 11.3 4.6 2.8 8.6 6.3 12.6 9.8 3 2.6 6.3 3.6 9.3.5 3-3.1 1.3-6.1-1.3-8.7-1.3-1.3-2.7-2.5-4.1-3.7-18.6-16-40.5-23.1-64.9-22.4zm151.1 329.4c.1-2.9-.9-5.4-4.2-6.2-3.6-.9-5.8.9-6.8 4.2-.6 1.9-1.1 3.9-1.4 5.8-4.6 24.9.3 48 13.1 69.6 4.9 8.3 10.6 16.2 17.9 22.7 2.7 2.4 5.8 3.2 8.4.4 2.8-2.9 2.2-5.9-.7-8.7-2.6-2.6-4.9-5.4-7.1-8.3-15.3-19.8-23.9-41.8-21.2-67.3.4-4.2 1.3-8.1 2-12.2z"/><path fill="#FFF" d="M601.9 296c-4.9 12-14 16.8-26.7 16.3-20.9-.8-41.9.5-62.8-.5-4.5-.2-9 .4-13.5.4-12.6 0-21.5-7-24.4-19.3-3.1-13.1-4.9-26.4-9.2-39.3-11-33.1-30.3-60.5-56.8-83-27.6-23.4-59.5-36.7-95.2-41.5-14.3-1.9-22.8-11.7-22.8-26.2-.1-25.1 0-50.3 0-75.4 0-16.6 3.1-21.2 18.4-27.4h5c1.1.2 2.3.6 3.4.7 24.2 2.1 47.7 7 70.7 14.6 46 15.2 86.4 39.5 121 73.4 43.7 42.9 72 94.4 86.1 153.9 3.1 13 4.6 26.2 6.7 39.4.1 4.5.1 9.2.1 13.9zM368.7 67.2c.1-15.8-11.2-27-27-27.1-14.7 0-26.5 11.9-26.5 26.8 0 14.6 12.1 26.6 26.7 26.7 14.9.1 26.7-11.6 26.8-26.4zm140.4 193.2c0 15.1 11.4 26.4 26.5 26.5 15.2.1 27.1-11.8 27-26.8-.1-14.9-12.4-26.9-27.2-26.7-14.7.2-26.3 12.2-26.3 27z"/><path fill="#FFF" d="M290.4 178.6c73.9 0 134.3 59.9 133.6 134-.6 72.2-56.7 133.4-134.3 133.1-76.6-.3-129.8-60.2-132.8-125.8-3.7-82.7 61.1-141.6 133.5-141.3zM236.2 314c-1.3 27.7 26.3 56.5 61.4 52.1 22.7-2.8 47.7-22.6 47-55.2-.6-29.3-24.8-52.5-54.7-53-28.2-.4-55.7 24.9-53.7 56.1zm-36.3 33.5c8.4 1.7 19.6-9.8 18.6-20.9-1.2-13.3-8-20.3-23.4-21-7.6-.3-17.7 11.5-17.8 20.6-.2 12.5 9.1 21.2 22.6 21.3zm27.3-118.6c.1 11.4 9.1 20.5 20.6 20.7 11.2.1 20.8-9.4 20.8-20.5-.1-11.8-9.1-20.9-20.8-20.9-11.4 0-20.6 9.3-20.6 20.7zM275.8 384c-12.1 0-20.6 8.7-20.6 20.8 0 11.4 8.7 20.1 20.2 20.1 12.1.1 20.9-8.6 21-20.6.2-11.4-9-20.3-20.6-20.3zm77.2-29.4c1 13.7 10 21.4 23.7 20.3 10.3-.8 18.5-10.9 17.6-21.7-1-11.8-10.3-19.6-21.9-19.2-11.7.4-20.6 12.2-19.4 20.6zm23.9-108.5c-.1-12-8.8-20.8-20.8-20.7-11.3 0-20.2 9.3-20.1 20.9.1 11.9 9 20.6 21 20.5 10.9-.2 19.9-9.6 19.9-20.7zm-7.1 62.6c6 0 10.2-3.7 10.2-9 0-6.5-3.7-10.2-10.1-10.2-4.3 0-10.2 4.4-10.2 7.6-.1 6.9 4 11.6 10.1 11.6zm-135.8 50c-6.1.1-10 4.3-9.7 10.4.2 5.3 4.5 9.3 9.8 9.3 5.3 0 9.6-4.6 9.6-10.1-.2-5.4-4.5-9.7-9.7-9.6zm69.2-135.6c-5.6 0-9.8 4.1-9.8 9.7 0 5.1 4.5 9.7 9.4 9.7 5.4 0 10-4.5 9.9-9.7 0-6-3.6-9.7-9.5-9.7zm23.9 169.7c5.7 0 9.7-4 9.6-9.7 0-4.9-4.6-9.5-9.5-9.7-5.7-.2-10.1 4.1-10.1 9.8.1 5.5 4.3 9.6 10 9.6zm-98.4-117.3c0-5.4-4-9.9-9.1-9.9-5.6-.1-10.3 4.4-10.3 9.9 0 5.6 4.1 9.4 10 9.4 5.5 0 9.4-3.9 9.4-9.4z"/></svg>