<svg xmlns="http://www.w3.org/2000/svg" viewBox="0 0 139.5 187.2" preserveAspectRatio="none"><path fill="#00953C" d="M69.4 187.2H15.9C5.8 187.2 0 181.6 0 171.5v-103c0-3.1.7-5.9 1.9-8.7C5 52.4 8 45 11.1 37.7c2.8-6.7 7.8-10.1 15.1-10.1h46c3.4 0 6.5.9 9.5 2.6 16.4 9.5 32.9 18.9 49.3 28.4 5.7 3.3 8.5 8 8.5 14.7-.1 32.8 0 65.6-.1 98.4 0 9.9-5.5 15.3-15.6 15.4-18.1.1-36.2.1-54.4.1zm-40-51.1c0 4.7.9 9.3 2.9 13.6 4.6 9.6 11.9 15.6 22.9 15.9 11.2.3 19-5.2 23.9-14.9 4.9-9.8 4.3-19.6.3-29.5C73.7 106.8 65.7 93.5 58 80c-1.6-2.8-2.6-2.3-4 .1-2.2 3.7-3.6 8-6.1 11.4-6.6 9.3-11.4 19.5-15.5 30.1-1.7 4.6-3.1 9.4-3 14.5zm45.2-92.8c-4 .5-7.1 2.1-8.4 6.4-1.3 4.4.3 8.3 5.1 11.2 11.1 6.7 22.3 13.2 33.6 19.7 5.4 3.1 10.8 2.1 13.6-2.5 2.6-4.2.9-9.3-4.4-12.6-11.2-6.8-22.5-13.6-33.8-20.3-1.7-.9-3.6-1.7-5.7-1.9z"/><path fill="#FFF" d="M38.9 22.8h-13c-2.6 0-4-1.2-4-4 0-3.8-.1-7.7 0-11.5C22 3 24.3.2 28.6.1c7-.3 14-.1 21 0 2.4 0 4.7 1.2 5.6 3.6 1.9 5.5 1.2 11.2.6 16.8-.2 2.1-2.3 2.2-3.9 2.2-4.3.2-8.6.1-13 .1z"/></svg>