<svg xmlns="http://www.w3.org/2000/svg" viewBox="0 0 512 431.5" preserveAspectRatio="none"><path fill="#FFF" d="M79.5 215.7h109.3v28.8H79.5z"/><path fill="#00953C" d="M478.9 51.8h-1.4V33.1c0-18.3-14.9-33.1-33.1-33.1h-43c-18.3 0-33.1 14.9-33.1 33.1v18.6h-1.4c-18.3 0-33.1 14.9-33.1 33.1V92H178.3v-7.1c0-18.3-14.9-33.1-33.1-33.1h-1.4V33.1C143.8 14.9 129 0 110.7 0h-43C49.4 0 34.5 14.9 34.5 33.1v18.6h-1.4C14.9 51.8 0 66.6 0 84.9V398.3c0 18.3 14.9 33.1 33.1 33.1h445.7c18.3 0 33.1-14.9 33.1-33.1V84.9c.1-18.3-14.8-33.1-33-33.1zm-87.7-18.7c0-5.6 4.5-10.1 10.1-10.1h43c5.6 0 10.1 4.5 10.1 10.1v18.6h-63.3V33.1zm-333.7 0C57.5 27.5 62 23 67.6 23h43c5.6 0 10.1 4.5 10.1 10.1v18.6H57.5V33.1zM23 92v-7.1c0-5.6 4.5-10.1 10.1-10.1H145.2c5.6 0 10.1 4.5 10.1 10.1V92H23zm188.8 164c0 6.4-5.2 11.5-11.5 11.5H68c-6.4 0-11.5-5.2-11.5-11.5v-51.8c0-6.4 5.2-11.5 11.5-11.5h132.3c6.4 0 11.5 5.2 11.5 11.5V256zm243.7 0c0 6.4-5.2 11.5-11.5 11.5h-28.8v28.8c0 6.4-5.2 11.5-11.5 11.5h-51.8c-6.4 0-11.5-5.2-11.5-11.5v-28.8h-28.8c-6.4 0-11.5-5.2-11.5-11.5v-51.8c0-6.4 5.2-11.5 11.5-11.5h28.8V164c0-6.4 5.2-11.5 11.5-11.5h51.8c6.4 0 11.5 5.2 11.5 11.5v28.8H444c6.4 0 11.5 5.2 11.5 11.5V256zM489 92H356.7v-7.1c0-5.6 4.5-10.1 10.1-10.1H478.9c5.6 0 10.1 4.5 10.1 10.1V92z"/><path fill="#FFF" d="M392.2 204.2v-28.8h-28.8v28.8c0 6.4-5.2 11.5-11.5 11.5h-28.8v28.8h28.8c6.4 0 11.5 5.2 11.5 11.5v28.8h28.8V256c0-6.4 5.2-11.5 11.5-11.5h28.8v-28.8h-28.8c-6.3 0-11.5-5.1-11.5-11.5z"/></svg>