<svg width="28" height="28" viewBox="0 0 28 28" fill="none" xmlns="http://www.w3.org/2000/svg" preserveAspectRatio="none"><path d="M14 0a1 1 0 0 0-1 1v3.555l-2.331-2.098a1 1 0 0 0-1.338 1.486L13 7.245v3.023l-1.134-1.964a1 1 0 1 0-1.732 1l1.134 1.964L8.65 9.757 7.625 4.928a1 1 0 0 0-1.956.416L6.32 8.41 3.242 6.634a1 1 0 0 0-1 1.732l3.078 1.777-2.982.97a1 1 0 0 0 .618 1.902L7.65 11.49 10.268 13H8a1 1 0 1 0 0 2h2.268L7.65 16.511l-4.694-1.526a1 1 0 0 0-.618 1.902l2.982.97-3.078 1.777a1 1 0 1 0 1 1.732l3.078-1.777-.651 3.067a1 1 0 1 0 1.956.416l1.025-4.829 2.618-1.51-1.134 1.963a1 1 0 0 0 1.732 1L13 17.732v3.023l-3.669 3.302a1 1 0 1 0 1.338 1.486L13 23.445V27a1 1 0 0 0 1 1V16a2 2 0 0 1 0-4V0z" fill="#3FD9E3"/><path d="M14 0a1 1 0 0 1 1 1v3.555l2.331-2.098a1 1 0 0 1 1.338 1.486L15 7.245v3.023l1.134-1.964a1 1 0 1 1 1.732 1l-1.134 1.964 2.618-1.511 1.025-4.829a1 1 0 1 1 1.956.416L21.68 8.41l3.078-1.777a1 1 0 1 1 1 1.732l-3.078 1.777 2.982.97a1 1 0 0 1-.618 1.902L20.35 11.49 17.732 13H20a1 1 0 1 1 0 2h-2.268l2.618 1.511 4.694-1.526a1 1 0 0 1 .618 1.902l-2.982.97 3.078 1.777a1 1 0 1 1-1 1.732l-3.078-1.777.651 3.067a1 1 0 0 1-1.956.416l-1.025-4.829-2.618-1.51 1.134 1.963a1 1 0 1 1-1.732 1L15 17.732v3.023l3.669 3.302a1 1 0 1 1-1.338 1.486L15 23.445V27a1 1 0 0 1-1 1V16a2 2 0 0 0 0-4V0z" fill="#3E9FFA"/></svg>