<svg xmlns="http://www.w3.org/2000/svg" viewBox="0 0 15 14" preserveAspectRatio="none"><path fill="#fff" d="M14.4 1.9H3.1L2.7.6V.5c0-.3-.3-.5-.6-.5H.6C.3 0 0 .3 0 .6c0 .4.3.7.6.7h1L4.5 11c-.3.3-.4.8-.4 1.2 0 1 .8 1.8 1.8 1.8s1.8-.8 1.8-1.8v-.3h2.5v.3c0 1 .8 1.8 1.8 1.8s1.8-.8 1.8-1.8-.8-1.8-1.8-1.8c-.3 0-.6.1-.9.3H6.7c-.3-.2-.7-.3-1.1-.2l-.2-1h7.4c.3 0 .5-.2.6-.4V9L15 2.8V2.5c0-.3-.3-.6-.6-.6zM5 8.3L3.5 3.2h10.1l-1.3 5.1H5zm1.4 3.9c0 .3-.2.6-.5.6s-.5-.2-.5-.6c0-.3.2-.6.5-.6.2 0 .5.3.5.6zm4.9 0c0-.3.2-.6.5-.6s.5.2.5.6c0 .3-.2.6-.5.6-.3-.1-.5-.3-.5-.6z"/></svg>