<svg width="270" height="44" fill="none" xmlns="http://www.w3.org/2000/svg"><path fill-rule="evenodd" clip-rule="evenodd" d="M264.649 21.371v3.453c-.022.451-.374.776-1.112.776h-6.807c-.74 0-1.09-.331-1.112-.776v-8.736c.022-.451.372-.776 1.112-.776h6.807c.738 0 1.087.334 1.112.776v5.283zm.014-9.995h-9.056c-1.497 0-5.277.56-5.338 3.936v10.297c.061 3.385 3.837 3.934 5.338 3.934h9.056c1.494 0 5.272-.56 5.337-3.934V15.312c-.063-3.376-3.843-3.936-5.337-3.936zM212.257 24.84c-.025.451-.379.77-1.113.77h-8.884v-3.24h8.884c.734 0 1.088.327 1.113.767v1.702zm-9.997-8.767c.029-.436.381-.761 1.11-.761h7.463c.731 0 1.083.325 1.11.765v1.717c-.027.44-.379.765-1.11.765h-8.576l.003-2.486zm13.845 4.262c.774-.654 1.189-1.444 1.189-2.286v-2.737c-.065-3.385-3.836-3.936-5.339-3.936h-9.704c-1.49 0-5.272.56-5.335 3.936v14.23h15.361c1.492 0 5.272-.559 5.337-3.933v-2.744c-.011-.945-.534-1.83-1.509-2.53zm-27.645.035h-9.027v-4.277c0-.507.451-.79 1.112-.79h6.807c.738 0 1.087.334 1.112.776l-.004 4.29zm.013-8.994h-9.042c-1.488 0-5.281.564-5.351 3.925v14.242h5.351V24.3h9.026v5.242h5.349v-14.23c-.059-3.376-3.839-3.936-5.333-3.936zm53.62 0h-16.621c-1.489 0-5.28.564-5.35 3.925v14.242h5.35V16.044c0-.473.452-.734 1.111-.734h4.513v14.23h5.351V15.313h4.513c.738 0 1.088.334 1.111.776v13.455h5.35V15.312c-.061-3.385-3.836-3.936-5.335-3.936" fill="#000"/><path d="M61.974 15.312v14.231h5.351V16.075c0-.45.382-.763 1.113-.763h10.577v-3.936H67.311c-1.491 0-5.273.56-5.337 3.936zm33.574-3.936h-.23l-8.646 11.449V11.376h-5.35v18.167h5.579l8.646-11.448v11.448h5.35V11.376h-5.349zm37.477 3.936h12.584v-3.936h-13.712c-1.492 0-5.274.56-5.337 3.936v10.297c.063 3.385 3.836 3.934 5.337 3.934H145.6v-3.934h-12.575c-.717 0-1.067-.313-1.11-.738v-2.446h11.613v-3.933h-11.613V16.05c.043-.424.393-.738 1.11-.738zm30.338 4.288c-.028.451-.382.767-1.115.767h-8.565v-4.288c.028-.44.38-.765 1.113-.765h7.463c.733 0 1.086.325 1.115.767l-.011 3.519zm.011-8.224h-9.704c-1.492 0-5.272.56-5.337 3.936v14.23h5.35v-5.24h9.704c1.492 0 5.272-.561 5.338-3.935v-5.06c-.082-3.371-3.859-3.93-5.351-3.93zm-44.909 0h-9.027c-1.489 0-5.283.564-5.353 3.925v14.242h5.351v-13.52c0-.451.451-.713 1.112-.713h6.802c.738 0 1.11.254 1.11.776v13.455h5.353V15.312c-.063-3.385-3.836-3.936-5.337-3.936" fill="#1AA34F"/><path fill-rule="evenodd" clip-rule="evenodd" d="M27.126 11.103c-7.673 0-12.367 2.618-15.436 8.686L6.093 30.831a18.067 18.067 0 0 1 28.494-21.79h4.72a21.691 21.691 0 1 0-28.475 31.436l10.474-20.68c2.909-5.243 8.763-5.352 11.735-5.417h23.041l1.654-3.268-30.61-.009z" fill="#1AA34F"/><path fill-rule="evenodd" clip-rule="evenodd" d="M33.887 17.221c-5.055 0-8.296 1.783-10.38 5.915l-3.95 7.795h6.587c.578-1.129 1.16-2.257 1.754-3.421h10.904A18.088 18.088 0 0 1 15.77 38.764l-1.65 3.259a21.703 21.703 0 0 0 29.261-20.331c0-.285 0-.567-.018-.849H39.74a18.186 18.186 0 0 1-.156 3.37H29.575l.058-.116c1.982-3.57 4.107-3.642 7.183-3.694h16.217l1.611-3.184-20.757.002z" fill="#000"/><path d="M265.712 37.53v1.353h1.083c.268.008.536-.002.802-.031a.755.755 0 0 0 .426-.203.586.586 0 0 0 .163-.431.612.612 0 0 0-.127-.39.713.713 0 0 0-.365-.226 4.483 4.483 0 0 0-1.039-.073h-.943zm0-2.032v1.178h.765c.452 0 .74 0 .851-.018a.825.825 0 0 0 .474-.18.56.56 0 0 0 .022-.783.7.7 0 0 0-.44-.179 15.049 15.049 0 0 0-1.002-.018h-.67zm-1.173-.848h2.32c.343-.006.686.01 1.026.052.214.029.42.1.605.21.181.106.335.252.452.426.118.176.18.384.178.596a1.092 1.092 0 0 1-.226.657 1.35 1.35 0 0 1-.596.451c.31.066.593.223.813.451.188.212.289.487.284.77a1.354 1.354 0 0 1-.185.677 1.401 1.401 0 0 1-.501.524 1.82 1.82 0 0 1-.785.24c-.194.019-.677.03-1.411.037h-1.974V34.65zm-6.195 2.543a1.767 1.767 0 0 0 .451 1.311 1.587 1.587 0 0 0 1.158.452 1.567 1.567 0 0 0 1.149-.452c.298-.295.451-.738.451-1.329s-.144-1.02-.436-1.306a1.569 1.569 0 0 0-1.159-.431 1.6 1.6 0 0 0-1.17.437c-.295.3-.444.738-.444 1.325v-.007zm-1.205.036a2.91 2.91 0 0 1 .264-1.306c.136-.264.318-.501.539-.7.22-.197.475-.35.752-.451a3.56 3.56 0 0 1 1.25-.201 2.932 2.932 0 0 1 2.051.7c.513.464.77 1.111.77 1.94a2.488 2.488 0 0 1-.765 1.93 2.917 2.917 0 0 1-2.031.697c-.862 0-1.548-.23-2.058-.693a2.443 2.443 0 0 1-.772-1.909v-.007zm-2.562.644l1.129.315a2.23 2.23 0 0 1-.867 1.24 2.735 2.735 0 0 1-1.541.403 2.673 2.673 0 0 1-1.898-.693 2.469 2.469 0 0 1-.745-1.893c0-.848.251-1.507.749-1.974a2.755 2.755 0 0 1 1.966-.705 2.616 2.616 0 0 1 1.729.553c.284.25.49.576.593.94l-1.16.243a1.05 1.05 0 0 0-.431-.625 1.353 1.353 0 0 0-.794-.226 1.403 1.403 0 0 0-1.043.406c-.269.271-.404.71-.404 1.316 0 .644.133 1.103.398 1.377a1.346 1.346 0 0 0 1.026.41 1.27 1.27 0 0 0 .801-.26c.252-.21.425-.5.492-.82v-.008zm-10.381-3.22h1.111v3.384l2.349-3.385h1.167v5.094h-1.095v-3.32l-2.349 3.324h-1.169l-.014-5.098zm-5.549 2.872v1.354h1.083a5.86 5.86 0 0 0 .806-.032.74.74 0 0 0 .422-.203.579.579 0 0 0 .167-.431.62.62 0 0 0-.129-.39.707.707 0 0 0-.365-.226 4.49 4.49 0 0 0-1.038-.072h-.946zm0-2.031v1.178h.767c.452 0 .743 0 .851-.018a.811.811 0 0 0 .472-.18.555.555 0 0 0 .025-.784.707.707 0 0 0-.452-.178 15.636 15.636 0 0 0-.999-.018h-.664zm-1.171-.849h2.32c.343-.006.686.011 1.027.052.213.03.419.101.604.21.181.106.336.252.452.427.119.175.181.383.178.595a1.092 1.092 0 0 1-.226.657 1.35 1.35 0 0 1-.595.452c.31.065.594.222.814.45.188.213.29.487.285.77a1.354 1.354 0 0 1-.185.677 1.425 1.425 0 0 1-.501.524c-.24.14-.509.222-.786.241-.194.018-.665.03-1.412.036h-1.973l-.002-5.09zm-5.091.862v1.445h.636c.312.015.625-.011.93-.08a.75.75 0 0 0 .363-.25.62.62 0 0 0 .131-.395.617.617 0 0 0-.185-.451.848.848 0 0 0-.469-.226 6.337 6.337 0 0 0-.844-.034l-.562-.009zm-1.171 4.232v-5.082h1.877c.466-.017.932.009 1.393.076.324.072.617.247.834.5.231.276.35.63.334.99.01.275-.057.547-.191.787a1.482 1.482 0 0 1-.495.504c-.185.115-.39.196-.604.239a7.666 7.666 0 0 1-1.214.074h-.763v1.923l-1.171-.011zm-6.263 0v-5.082h4.299v.862h-3.125v1.128h2.913v.855h-2.913v1.386h3.24v.86l-4.414-.01zm-2.999-1.873l1.128.316c-.135.501-.441.94-.866 1.239a2.74 2.74 0 0 1-1.542.404 2.677 2.677 0 0 1-1.898-.693 2.466 2.466 0 0 1-.742-1.894c0-.848.249-1.506.747-1.974a2.75 2.75 0 0 1 1.966-.704 2.61 2.61 0 0 1 1.728.552c.285.249.492.575.594.94l-1.16.243a1.043 1.043 0 0 0-.431-.625 1.335 1.335 0 0 0-.79-.226 1.406 1.406 0 0 0-1.047.406c-.268.271-.402.71-.402 1.316 0 .644.132 1.103.395 1.377a1.359 1.359 0 0 0 1.027.41c.288.007.571-.084.801-.26.253-.207.428-.494.496-.814l-.004-.013zm-9.898-.677a1.75 1.75 0 0 0 .451 1.311 1.576 1.576 0 0 0 1.156.451 1.563 1.563 0 0 0 1.146-.451c.298-.296.451-.738.451-1.33 0-.59-.144-1.02-.435-1.306a1.782 1.782 0 0 0-2.331 0c-.289.304-.434.75-.434 1.336l-.004-.011zm-1.208.036c-.015-.45.076-.898.265-1.307.135-.264.318-.5.539-.7.219-.196.474-.35.751-.45.402-.142.825-.21 1.251-.202a2.934 2.934 0 0 1 2.049.7c.513.465.769 1.112.769 1.94a2.472 2.472 0 0 1-.765 1.93 2.913 2.913 0 0 1-2.031.698c-.862 0-1.548-.231-2.058-.693a2.445 2.445 0 0 1-.765-1.905l-.005-.011zm-4.062 2.516v-4.222h-1.719v-.862h4.608v.862h-1.715v4.231l-1.174-.009zm-6.528-2.22v1.353h1.083c.267.008.535-.002.801-.031.16-.02.31-.091.427-.203a.582.582 0 0 0 .164-.431.605.605 0 0 0-.126-.39.7.7 0 0 0-.366-.226 4.464 4.464 0 0 0-1.038-.073h-.945zm0-2.032v1.178h.767c.451 0 .74 0 .851-.018a.819.819 0 0 0 .471-.18.504.504 0 0 0 .174-.4.522.522 0 0 0-.147-.383.704.704 0 0 0-.451-.179 15.608 15.608 0 0 0-1-.018h-.665zm-1.172-.848h2.318c.343-.006.686.01 1.027.052.213.03.419.1.605.21.18.107.334.252.451.426.118.176.179.384.176.596a1.092 1.092 0 0 1-.226.657c-.151.203-.358.36-.595.451.31.065.594.222.814.451.188.212.29.487.285.77-.002.238-.065.47-.183.677a1.424 1.424 0 0 1-.501.523c-.24.14-.509.222-.786.242-.194.018-.677.03-1.412.036h-1.973v-5.091zm-3.64 3.078l-.799-1.891-.792 1.907 1.591-.016zm2.155 2.015h-1.263l-.515-1.144h-2.32l-.478 1.158h-1.241l2.256-5.094h1.239l2.322 5.08zm-16.397-5.093h1.099v3.385l2.349-3.385h1.167v5.093h-1.097v-3.308l-2.347 3.324h-1.171v-5.11zm-10.047 2.888v1.354h1.086c.267.009.535-.002.801-.031a.755.755 0 0 0 .426-.203.586.586 0 0 0 .163-.431.606.606 0 0 0-.127-.39.703.703 0 0 0-.365-.226 4.473 4.473 0 0 0-1.038-.073h-.946zm0-2.03v1.177h.767c.452 0 .738 0 .851-.018a.832.832 0 0 0 .472-.18.514.514 0 0 0 .171-.4.515.515 0 0 0-.146-.384.702.702 0 0 0-.452-.178c-.116-.012-.45-.018-1.002-.018h-.661zm-1.169-.85h2.316c.343-.005.687.012 1.029.053.212.029.417.1.602.21.181.106.335.252.451.426.118.176.18.384.176.596a1.09 1.09 0 0 1-.225.657 1.35 1.35 0 0 1-.596.451c.311.065.595.222.815.451.188.212.289.487.284.77-.001.238-.064.47-.183.677a1.42 1.42 0 0 1-.503.524 1.822 1.822 0 0 1-.783.24c-.196.019-.677.03-1.413.037h-1.972l.002-5.091zm-6.197 2.544a1.762 1.762 0 0 0 .451 1.311 1.718 1.718 0 0 0 2.307 0c.295-.295.451-.738.451-1.329s-.147-1.02-.435-1.306a1.782 1.782 0 0 0-2.332 0c-.293.306-.442.744-.442 1.331v-.007zm-1.205.036c-.015-.45.075-.897.264-1.306a2.355 2.355 0 0 1 1.289-1.151c.402-.141.826-.21 1.252-.201a2.934 2.934 0 0 1 2.049.7c.513.464.77 1.111.77 1.94a2.488 2.488 0 0 1-.765 1.93 2.915 2.915 0 0 1-2.031.697c-.862 0-1.548-.23-2.058-.693a2.441 2.441 0 0 1-.77-1.909v-.007zm-6.468 2.517v-5.09h1.178v2.005h2.293v-2.004h1.169v5.093h-1.169v-2.227h-2.293v2.227l-1.178-.004zm-6.671-5.094h1.097v3.385l2.349-3.385h1.167v5.094h-1.097v-3.32l-2.344 3.324h-1.172v-5.098zm-5.12 1.39l-1.142-.225c.245-.83.943-1.245 2.094-1.244.68 0 1.194.132 1.541.395a1.142 1.142 0 0 1 .522.928 1.01 1.01 0 0 1-.239.656 1.97 1.97 0 0 1-.711.517c.329.082.629.252.869.492.192.215.294.495.286.783a1.287 1.287 0 0 1-.557 1.083c-.373.276-.932.413-1.677.413a3.207 3.207 0 0 1-1.435-.266 1.686 1.686 0 0 1-.792-.995l1.074-.31c.064.248.222.46.44.594.212.098.444.145.677.138.285.024.57-.05.808-.21a.62.62 0 0 0 .253-.48.585.585 0 0 0-.285-.503 1.58 1.58 0 0 0-.864-.193h-.264v-.767h.135c.29.018.578-.057.822-.215a.674.674 0 0 0 .284-.561.59.59 0 0 0-.226-.47 1.011 1.011 0 0 0-.663-.192.886.886 0 0 0-.95.637v-.005zm-4.464 1.688l-.799-1.89-.783 1.89h1.582zm2.155 2.016h-1.273l-.505-1.156h-2.32l-.483 1.16h-1.241l2.257-5.093h1.241l2.324 5.089zm-10.11-5.094h3.929v.855h-2.756v4.239h-1.171l-.002-5.094zm-3.694 3.078l-.799-1.89-.783 1.89h1.582zm2.155 2.016h-1.282l-.496-1.156h-2.318l-.476 1.158h-1.241l2.256-5.094h1.239l2.318 5.092zm-12.852 0v-5.09h1.753l1.052 3.476 1.038-3.475h1.756v5.093h-1.088v-4.008l-1.153 4.01h-1.129l-1.146-4.01v4.01l-1.083-.006zm-6.175-2.55a1.761 1.761 0 0 0 .452 1.31 1.573 1.573 0 0 0 1.157.452 1.563 1.563 0 0 0 1.149-.451c.298-.296.451-.738.451-1.33 0-.59-.146-1.02-.437-1.306a1.78 1.78 0 0 0-2.329 0c-.3.304-.44.742-.44 1.329l-.003-.005zm-1.211.04a2.89 2.89 0 0 1 .264-1.307 2.397 2.397 0 0 1 1.29-1.15 3.58 3.58 0 0 1 1.251-.201 2.934 2.934 0 0 1 2.049.7c.513.464.769 1.111.769 1.94a2.472 2.472 0 0 1-.765 1.93 2.913 2.913 0 0 1-2.031.697c-.862 0-1.547-.231-2.056-.693a2.449 2.449 0 0 1-.771-1.916zm-4.063 2.516V35.52h-1.719v-.862h4.608v.862h-1.715v4.231l-1.174.002zm-6.522-2.223v1.354h1.081c.269.008.537-.002.804-.031.16-.02.31-.091.426-.203a.569.569 0 0 0 .165-.431.617.617 0 0 0-.126-.39.716.716 0 0 0-.366-.226 4.486 4.486 0 0 0-1.038-.073h-.945zm0-2.03v1.177h.768c.451 0 .74 0 .851-.018a.817.817 0 0 0 .471-.18.505.505 0 0 0 .172-.4.523.523 0 0 0-.147-.383.706.706 0 0 0-.451-.179 15.18 15.18 0 0 0-1.002-.018h-.662zm-1.17-.85h2.317c.343-.005.686.012 1.027.053.213.029.419.1.604.21.181.106.336.252.452.426a1.078 1.078 0 0 1-.048 1.252 1.32 1.32 0 0 1-.593.452c.31.065.594.222.812.451.188.212.29.487.285.77a1.364 1.364 0 0 1-.183.677 1.401 1.401 0 0 1-.503.524c-.24.139-.509.221-.786.24-.194.019-.663.03-1.412.037h-1.973V34.65zm-3.639 3.079l-.799-1.891-.783 1.891h1.582zm2.156 2.015h-1.276l-.505-1.153h-2.318l-.476 1.158h-1.243l2.256-5.094h1.24l2.322 5.09zm-15.218-.855h1.129c.256.007.513-.008.767-.047a.771.771 0 0 0 .381-.212.593.593 0 0 0-.117-.926 2.127 2.127 0 0 0-.977-.162h-1.192l.01 1.347zm-1.17-4.238h1.17v2.03h1.567c.738 0 1.273.151 1.604.452a1.428 1.428 0 0 1 .497 1.09c.008.322-.098.637-.3.887a1.5 1.5 0 0 1-.678.492 3.628 3.628 0 0 1-1.114.133h-2.747V34.65zm-4.526 5.093V35.52h-1.73v-.862h4.608v.862h-1.718v4.231l-1.16-.007zm-7.566 0v-5.086h4.299v.862h-3.128v1.128h2.909v.855h-2.91v1.386h3.24v.86l-4.41-.005zm-3-1.873l1.129.316a2.23 2.23 0 0 1-.87 1.24 2.726 2.726 0 0 1-1.538.403 2.677 2.677 0 0 1-1.9-.693 2.463 2.463 0 0 1-.743-1.893c0-.849.25-1.507.747-1.975a2.749 2.749 0 0 1 1.966-.704 2.609 2.609 0 0 1 1.728.553c.286.248.492.575.594.939l-1.16.244a1.05 1.05 0 0 0-.429-.626 1.338 1.338 0 0 0-.792-.225 1.406 1.406 0 0 0-1.047.406c-.266.27-.4.71-.4 1.316 0 .644.132 1.102.396 1.376a1.354 1.354 0 0 0 1.026.411c.29.007.573-.084.804-.26.25-.21.422-.499.49-.819v-.009z" fill="#000"/></svg>